<svg width="25" height="25" viewBox="0 0 25 25" fill="none" xmlns="http://www.w3.org/2000/svg">
<path fill-rule="evenodd" clip-rule="evenodd" d="M12.5 2.08337C6.74706 2.08337 2.08334 6.74703 2.08334 12.5C2.08334 18.253 6.74706 22.9167 12.5 22.9167C18.253 22.9167 22.9167 18.253 22.9167 12.5C22.9167 6.74703 18.253 2.08337 12.5 2.08337ZM12.5 20.8334C7.90502 20.8334 4.16668 17.095 4.16668 12.5C4.16668 7.90505 7.90502 4.16671 12.5 4.16671C17.0951 4.16671 20.8333 7.90505 20.8333 12.5C20.8333 17.095 17.0951 20.8334 12.5 20.8334ZM13.8044 8.33337C13.8044 9.08862 13.2545 9.63546 12.5106 9.63546C11.7366 9.63546 11.2002 9.08862 11.2002 8.31893C11.2002 7.57915 11.7511 7.03129 12.5106 7.03129C13.2545 7.03129 13.8044 7.57915 13.8044 8.33337ZM11.4606 11.4584H13.544V17.7084H11.4606V11.4584Z" fill="#F0F6F6"/>
</svg>
