<svg width="22" height="22" viewBox="0 0 22 22" fill="none" xmlns="http://www.w3.org/2000/svg">
<g opacity="0.5" clip-path="url(#clip0_14_26)">
<path d="M15.4 7.0373H6.6M15.4 7.0373L15.9376 8.06414C16.5486 9.23104 16.8667 10.5178 16.8667 11.8224V15.441C16.8667 18.5351 14.2401 21.0435 11 21.0435C7.75993 21.0435 5.13333 18.5351 5.13333 15.441V11.8224C5.13333 10.5178 5.45145 9.23104 6.06232 8.06414L6.6 7.0373M15.4 7.0373V5.63668C15.4 3.31606 13.43 1.43481 11 1.43481C8.56995 1.43481 6.6 3.31606 6.6 5.63668V7.0373M22 12.6398H16.8667M-4.76837e-07 12.6398H5.13333M20.5333 20.3432L16.1333 18.2423M1.46667 20.3432L5.86667 18.2423M20.5333 4.93637L16.1333 7.0373M1.46667 4.93637L5.86667 7.0373" stroke="#F0F6F6" stroke-width="2"/>
</g>
<defs>
<clipPath id="clip0_14_26">
<rect width="22" height="22" fill="white" transform="matrix(-1 0 0 1 22 0)"/>
</clipPath>
</defs>
</svg>
