<svg width="26" height="26" viewBox="0 0 26 26" fill="none" xmlns="http://www.w3.org/2000/svg">
<path d="M14.5275 13L21.3525 6.18579C21.5565 5.98179 21.6711 5.70512 21.6711 5.41662C21.6711 5.12813 21.5565 4.85145 21.3525 4.64746C21.1485 4.44346 20.8718 4.32886 20.5833 4.32886C20.2948 4.32886 20.0181 4.44346 19.8141 4.64746L13 11.4725L6.18581 4.64746C5.98181 4.44346 5.70513 4.32886 5.41664 4.32886C5.12815 4.32886 4.85147 4.44346 4.64747 4.64746C4.44348 4.85145 4.32888 5.12813 4.32888 5.41662C4.32888 5.70512 4.44348 5.98179 4.64747 6.18579L11.4725 13L4.64747 19.8141C4.54594 19.9148 4.46534 20.0346 4.41034 20.1667C4.35534 20.2987 4.32703 20.4403 4.32703 20.5833C4.32703 20.7263 4.35534 20.8679 4.41034 20.9999C4.46534 21.1319 4.54594 21.2517 4.64747 21.3525C4.74818 21.454 4.868 21.5346 5.00002 21.5896C5.13203 21.6446 5.27363 21.6729 5.41664 21.6729C5.55965 21.6729 5.70125 21.6446 5.83327 21.5896C5.96528 21.5346 6.0851 21.454 6.18581 21.3525L13 14.5275L19.8141 21.3525C19.9149 21.454 20.0347 21.5346 20.1667 21.5896C20.2987 21.6446 20.4403 21.6729 20.5833 21.6729C20.7263 21.6729 20.8679 21.6446 20.9999 21.5896C21.1319 21.5346 21.2518 21.454 21.3525 21.3525C21.454 21.2517 21.5346 21.1319 21.5896 20.9999C21.6446 20.8679 21.6729 20.7263 21.6729 20.5833C21.6729 20.4403 21.6446 20.2987 21.5896 20.1667C21.5346 20.0346 21.454 19.9148 21.3525 19.8141L14.5275 13Z" fill="#FF8C8C"/>
</svg>
