<svg width="16" height="16" viewBox="0 0 16 16" fill="none" xmlns="http://www.w3.org/2000/svg">
<path fill-rule="evenodd" clip-rule="evenodd" d="M2.35999 0.200024L2.2996 0.199988C2.02546 0.199727 1.78914 0.199501 1.57979 0.249764C0.921626 0.407768 0.407738 0.921656 0.249734 1.57982C0.199471 1.78917 0.199696 2.02549 0.199958 2.29963L0.199994 2.36002V5.24002L0.199958 5.30042C0.199696 5.57456 0.199471 5.81089 0.249734 6.02023C0.407738 6.67839 0.921626 7.19228 1.57979 7.3503C1.78914 7.40055 2.02546 7.40032 2.2996 7.40006L2.35999 7.40002H5.23999L5.30039 7.40006C5.57453 7.40032 5.81086 7.40055 6.0202 7.3503C6.67836 7.19228 7.19225 6.67839 7.35027 6.02023C7.40052 5.81089 7.40029 5.57456 7.40003 5.30042L7.39999 5.24002V2.36002L7.40003 2.29963C7.40029 2.02549 7.40052 1.78917 7.35027 1.57982C7.19225 0.921656 6.67836 0.407768 6.0202 0.249764C5.81086 0.199501 5.57453 0.199727 5.30039 0.199988L5.23999 0.200024H2.35999ZM1.85993 1.41661C1.91158 1.4042 1.99066 1.40002 2.35999 1.40002H5.23999C5.60934 1.40002 5.68842 1.4042 5.74006 1.41661C5.95945 1.46928 6.13074 1.64056 6.18342 1.85996C6.19582 1.91161 6.19999 1.99069 6.19999 2.36002V5.24002C6.19999 5.60937 6.19582 5.68845 6.18342 5.74009C6.13074 5.95948 5.95945 6.13077 5.74006 6.18345C5.68842 6.19585 5.60934 6.20002 5.23999 6.20002H2.35999C1.99066 6.20002 1.91158 6.19585 1.85993 6.18345C1.64053 6.13077 1.46925 5.95948 1.41658 5.74009C1.40417 5.68845 1.39999 5.60937 1.39999 5.24002V2.36002C1.39999 1.99069 1.40417 1.91161 1.41658 1.85996C1.46925 1.64056 1.64053 1.46928 1.85993 1.41661ZM10.76 0.200024L10.6996 0.199988C10.4255 0.199727 10.1891 0.199501 9.97979 0.249764C9.32162 0.407768 8.80774 0.921656 8.64973 1.57982C8.59946 1.78917 8.59969 2.02549 8.59996 2.29963L8.59999 2.36002V5.24002L8.59996 5.30042C8.59969 5.57456 8.59946 5.81089 8.64973 6.02023C8.80774 6.67839 9.32162 7.19228 9.97979 7.3503C10.1891 7.40055 10.4255 7.40032 10.6996 7.40006L10.76 7.40002H13.64L13.7004 7.40006C13.9746 7.40032 14.2108 7.40055 14.4202 7.3503C15.0783 7.19228 15.5923 6.67839 15.7503 6.02023C15.8005 5.81089 15.8004 5.57456 15.8 5.30042V5.24002V2.36002V2.29963C15.8004 2.02549 15.8005 1.78917 15.7503 1.57982C15.5923 0.921656 15.0783 0.407768 14.4202 0.249764C14.2108 0.199501 13.9746 0.199727 13.7004 0.199988L13.64 0.200024H10.76ZM10.2599 1.41661C10.3116 1.4042 10.3907 1.40002 10.76 1.40002H13.64C14.0094 1.40002 14.0884 1.4042 14.14 1.41661C14.3594 1.46928 14.5308 1.64056 14.5834 1.85996C14.5958 1.91161 14.6 1.99069 14.6 2.36002V5.24002C14.6 5.60937 14.5958 5.68845 14.5834 5.74009C14.5308 5.95948 14.3594 6.13077 14.14 6.18345C14.0884 6.19585 14.0094 6.20002 13.64 6.20002H10.76C10.3907 6.20002 10.3116 6.19585 10.2599 6.18345C10.0405 6.13077 9.86924 5.95948 9.81658 5.74009C9.80417 5.68845 9.79999 5.60937 9.79999 5.24002V2.36002C9.79999 1.99069 9.80417 1.91161 9.81658 1.85996C9.86924 1.64056 10.0405 1.46928 10.2599 1.41661ZM2.2996 8.59999L2.35999 8.60002H5.23999L5.30039 8.59999C5.57453 8.59972 5.81086 8.59949 6.0202 8.64976C6.67836 8.80777 7.19225 9.32166 7.35027 9.97982C7.40052 10.1892 7.40029 10.4255 7.40003 10.6996L7.39999 10.76V13.64L7.40003 13.7004C7.40029 13.9746 7.40052 14.2109 7.35027 14.4203C7.19225 15.0783 6.67836 15.5923 6.0202 15.7503C5.81086 15.8005 5.57453 15.8004 5.30039 15.8H5.23999H2.35999H2.2996C2.02546 15.8004 1.78914 15.8005 1.57979 15.7503C0.921626 15.5923 0.407738 15.0783 0.249734 14.4203C0.199471 14.2109 0.199696 13.9746 0.199958 13.7004L0.199994 13.64V10.76L0.199958 10.6996C0.199696 10.4255 0.199471 10.1892 0.249734 9.97982C0.407738 9.32166 0.921626 8.80777 1.57979 8.64976C1.78914 8.59949 2.02546 8.59972 2.2996 8.59999ZM2.35999 9.80002C1.99066 9.80002 1.91158 9.8042 1.85993 9.81661C1.64053 9.86928 1.46925 10.0406 1.41658 10.26C1.40417 10.3116 1.39999 10.3907 1.39999 10.76V13.64C1.39999 14.0094 1.40417 14.0885 1.41658 14.1401C1.46925 14.3594 1.64053 14.5308 1.85993 14.5835C1.91158 14.5958 1.99066 14.6 2.35999 14.6H5.23999C5.60934 14.6 5.68842 14.5958 5.74006 14.5835C5.95945 14.5308 6.13074 14.3594 6.18342 14.1401C6.19582 14.0885 6.19999 14.0094 6.19999 13.64V10.76C6.19999 10.3907 6.19582 10.3116 6.18342 10.26C6.13074 10.0406 5.95945 9.86928 5.74006 9.81661C5.68842 9.8042 5.60934 9.80002 5.23999 9.80002H2.35999ZM10.76 8.60002L10.6996 8.59999C10.4255 8.59972 10.1891 8.59949 9.97979 8.64976C9.32162 8.80777 8.80774 9.32166 8.64973 9.97982C8.59946 10.1892 8.59969 10.4255 8.59996 10.6996L8.59999 10.76V13.64L8.59996 13.7004C8.59969 13.9746 8.59946 14.2109 8.64973 14.4203C8.80774 15.0783 9.32162 15.5923 9.97979 15.7503C10.1891 15.8005 10.4255 15.8004 10.6996 15.8H10.76H13.64H13.7004C13.9746 15.8004 14.2108 15.8005 14.4202 15.7503C15.0783 15.5923 15.5923 15.0783 15.7503 14.4203C15.8005 14.2109 15.8004 13.9746 15.8 13.7004V13.64V10.76V10.6996C15.8004 10.4255 15.8005 10.1892 15.7503 9.97982C15.5923 9.32166 15.0783 8.80777 14.4202 8.64976C14.2108 8.59949 13.9746 8.59972 13.7004 8.59999L13.64 8.60002H10.76ZM10.2599 9.81661C10.3116 9.8042 10.3907 9.80002 10.76 9.80002H13.64C14.0094 9.80002 14.0884 9.8042 14.14 9.81661C14.3594 9.86928 14.5308 10.0406 14.5834 10.26C14.5958 10.3116 14.6 10.3907 14.6 10.76V13.64C14.6 14.0094 14.5958 14.0885 14.5834 14.1401C14.5308 14.3594 14.3594 14.5308 14.14 14.5835C14.0884 14.5958 14.0094 14.6 13.64 14.6H10.76C10.3907 14.6 10.3116 14.5958 10.2599 14.5835C10.0405 14.5308 9.86924 14.3594 9.81658 14.1401C9.80417 14.0885 9.79999 14.0094 9.79999 13.64V10.76C9.79999 10.3907 9.80417 10.3116 9.81658 10.26C9.86924 10.0406 10.0405 9.86928 10.2599 9.81661Z" fill="#F0F6F6"/>
</svg>
