<svg width="57" height="57" viewBox="0 0 57 57" fill="none" xmlns="http://www.w3.org/2000/svg">
<path d="M49.875 19V45.125C49.875 45.7549 49.6248 46.359 49.1794 46.8044C48.734 47.2498 48.1299 47.5 47.5 47.5H9.5C8.87011 47.5 8.26602 47.2498 7.82062 46.8044C7.37522 46.359 7.125 45.7549 7.125 45.125V11.875C7.125 11.2451 7.37522 10.641 7.82062 10.1956C8.26602 9.75022 8.87011 9.5 9.5 9.5H22.7763C23.3993 9.50262 23.9964 9.74998 24.4387 10.1887L30.1863 15.9363C30.6286 16.375 31.2257 16.6224 31.8487 16.625H47.5C48.1299 16.625 48.734 16.8752 49.1794 17.3206C49.6248 17.766 49.875 18.3701 49.875 19Z" stroke="#F0F6F6" stroke-width="5" stroke-linecap="round" stroke-linejoin="round"/>
</svg>
