<svg width="18" height="18" viewBox="0 0 18 18" fill="none" xmlns="http://www.w3.org/2000/svg">
<g clip-path="url(#clip0_7_244)">
<path d="M9.45769 9.45773L14.1437 9.46145C14.2839 9.46145 14.4183 9.40577 14.5174 9.30665C14.6166 9.20753 14.6723 9.0731 14.6723 8.93292C14.6723 8.79275 14.6166 8.65832 14.5174 8.5592C14.4183 8.46008 14.2839 8.4044 14.1437 8.4044L9.45769 8.40812L9.46141 3.72209C9.46141 3.58191 9.40573 3.44748 9.30661 3.34836C9.20749 3.24924 9.07306 3.19356 8.93289 3.19356C8.79271 3.19356 8.65828 3.24924 8.55916 3.34836C8.46004 3.44748 8.40436 3.58191 8.40436 3.72209L8.40808 8.40812L3.72205 8.4044C3.65256 8.40411 3.58371 8.41759 3.51945 8.44405C3.4552 8.47051 3.39682 8.50943 3.34769 8.55856C3.29855 8.6077 3.25963 8.66608 3.23317 8.73033C3.20671 8.79458 3.19324 8.86344 3.19352 8.93292C3.19324 9.00241 3.20671 9.07127 3.23317 9.13552C3.25963 9.19977 3.29855 9.25815 3.34769 9.30728C3.39682 9.35642 3.4552 9.39534 3.51945 9.4218C3.58371 9.44826 3.65256 9.46174 3.72205 9.46145L8.40808 9.45773L8.40436 14.1438C8.40407 14.2132 8.41755 14.2821 8.44401 14.3464C8.47047 14.4106 8.50939 14.469 8.55853 14.5181C8.60766 14.5673 8.66604 14.6062 8.73029 14.6326C8.79454 14.6591 8.8634 14.6726 8.93289 14.6723C9.00237 14.6726 9.07123 14.6591 9.13548 14.6326C9.19973 14.6062 9.25811 14.5673 9.30725 14.5181C9.35638 14.469 9.3953 14.4106 9.42176 14.3464C9.44822 14.2821 9.4617 14.2132 9.46141 14.1438L9.45769 9.45773Z" fill="#25272D"/>
</g>
<defs>
<clipPath id="clip0_7_244">
<rect width="12.633" height="12.633" fill="white" transform="translate(8.93286) rotate(45)"/>
</clipPath>
</defs>
</svg>
