<svg width="21" height="21" viewBox="0 0 21 21" fill="none" xmlns="http://www.w3.org/2000/svg">
<path d="M18.8918 16.9314L13.3711 7.36916V2.69421H13.73C13.8728 2.69421 14.0097 2.6375 14.1107 2.53654C14.2116 2.43558 14.2684 2.29866 14.2684 2.15588C14.2684 2.01311 14.2116 1.87618 14.1107 1.77523C14.0097 1.67427 13.8728 1.61755 13.73 1.61755H7.27007C6.56448 1.62899 6.56097 2.68208 7.27007 2.69421H7.62896V7.36907L2.10811 16.9314C1.47918 18.0208 2.2653 19.3825 3.52315 19.3825H17.4768C18.7347 19.3825 19.5209 18.0208 18.8918 16.9314ZM17.9596 18.0272C17.9114 18.1125 17.8412 18.1834 17.7563 18.2324C17.6715 18.2814 17.575 18.3068 17.477 18.3058H3.52315C3.4253 18.3058 3.32918 18.28 3.24445 18.2311C3.15971 18.1821 3.08936 18.1117 3.04045 18.027C2.99154 17.9422 2.9658 17.8461 2.96581 17.7483C2.96583 17.6504 2.99161 17.5543 3.04055 17.4696L6.2191 11.9642C6.64878 12.1241 7.16354 12.2355 7.87334 12.2355C9.18587 12.2355 9.84213 11.8612 10.4985 11.487C11.1547 11.1128 11.811 10.7385 13.1235 10.7385C13.4598 10.7367 13.7954 10.7672 14.1257 10.8295L17.9596 17.4697C18.0094 17.5541 18.0358 17.6504 18.0358 17.7484C18.0358 17.8465 18.0094 17.9427 17.9596 18.0272Z" fill="#F0F6F6"/>
<path d="M8.94229 16.6908C8.95824 17.6342 10.3618 17.6343 10.3778 16.6908C10.3619 15.7475 8.95832 15.7474 8.94229 16.6908Z" fill="#F0F6F6"/>
<path d="M6.0712 14.5375C6.08714 15.4809 7.49071 15.481 7.50674 14.5375C7.4908 13.5942 6.08723 13.594 6.0712 14.5375Z" fill="#F0F6F6"/>
<path d="M12.8327 13.4608C12.8487 14.4042 14.2522 14.4043 14.2683 13.4609C14.2524 12.5175 12.8488 12.5174 12.8327 13.4608Z" fill="#F0F6F6"/>
</svg>
