<svg width="22" height="22" viewBox="0 0 22 22" fill="none" xmlns="http://www.w3.org/2000/svg">
<path d="M11 3.66664C10.7569 3.66664 10.5237 3.76322 10.3518 3.93513C10.1799 4.10704 10.0833 4.34019 10.0833 4.58331C10.0833 6.13431 8.20784 6.91164 7.11059 5.81439C7.02603 5.72684 6.92488 5.65701 6.81304 5.60897C6.70121 5.56092 6.58092 5.53564 6.45921 5.53458C6.33749 5.53352 6.21679 5.55671 6.10413 5.60281C5.99148 5.6489 5.88913 5.71696 5.80306 5.80303C5.71699 5.8891 5.64893 5.99145 5.60284 6.1041C5.55675 6.21676 5.53355 6.33746 5.53461 6.45918C5.53567 6.58089 5.56095 6.70118 5.609 6.81301C5.65704 6.92485 5.72687 7.026 5.81442 7.11056C6.91167 8.20781 6.13526 10.0833 4.58334 10.0833C4.34022 10.0833 4.10707 10.1799 3.93516 10.3518C3.76325 10.5237 3.66667 10.7569 3.66667 11C3.66667 11.2431 3.76325 11.4762 3.93516 11.6482C4.10707 11.8201 4.34022 11.9166 4.58334 11.9166C6.13434 11.9166 6.91167 13.7921 5.81442 14.8894C5.64744 15.0623 5.55505 15.2938 5.55714 15.5342C5.55923 15.7745 5.65563 16.0044 5.82559 16.1744C5.99555 16.3444 6.22546 16.4408 6.46581 16.4428C6.70615 16.4449 6.9377 16.3525 7.11059 16.1856C8.20784 15.0883 10.0833 15.8647 10.0833 17.4166C10.0833 17.6598 10.1799 17.8929 10.3518 18.0648C10.5237 18.2367 10.7569 18.3333 11 18.3333C11.2431 18.3333 11.4763 18.2367 11.6482 18.0648C11.8201 17.8929 11.9167 17.6598 11.9167 17.4166C11.9167 15.8656 13.7922 15.0883 14.8894 16.1856C14.974 16.2731 15.0751 16.3429 15.187 16.391C15.2988 16.439 15.4191 16.4643 15.5408 16.4654C15.6625 16.4664 15.7832 16.4432 15.8959 16.3971C16.0085 16.3511 16.1109 16.283 16.197 16.1969C16.283 16.1109 16.3511 16.0085 16.3972 15.8959C16.4433 15.7832 16.4665 15.6625 16.4654 15.5408C16.4643 15.4191 16.4391 15.2988 16.391 15.1869C16.343 15.0751 16.2731 14.974 16.1856 14.8894C15.0883 13.7921 15.8648 11.9166 17.4167 11.9166C17.6598 11.9166 17.8929 11.8201 18.0649 11.6482C18.2368 11.4762 18.3333 11.2431 18.3333 11C18.3333 10.7569 18.2368 10.5237 18.0649 10.3518C17.8929 10.1799 17.6598 10.0833 17.4167 10.0833C15.8657 10.0833 15.0883 8.20781 16.1856 7.11056C16.3526 6.93767 16.445 6.70612 16.4429 6.46577C16.4408 6.22543 16.3444 5.99552 16.1744 5.82556C16.0045 5.6556 15.7746 5.5592 15.5342 5.55711C15.2939 5.55502 15.0623 5.64741 14.8894 5.81439C13.7922 6.91164 11.9167 6.13523 11.9167 4.58331C11.9167 4.34019 11.8201 4.10704 11.6482 3.93513C11.4763 3.76322 11.2431 3.66664 11 3.66664ZM8.25734 4.37889C8.30803 3.68614 8.619 3.03823 9.12776 2.56534C9.63653 2.09244 10.3054 1.82959 11 1.82959C11.6946 1.82959 12.3635 2.09244 12.8722 2.56534C13.381 3.03823 13.692 3.68614 13.7427 4.37889C14.2687 3.92714 14.9459 3.69076 15.6387 3.71707C16.3316 3.74337 16.989 4.03044 17.4792 4.52077C17.9694 5.01111 18.2563 5.66852 18.2824 6.36139C18.3086 7.05425 18.072 7.73142 17.6202 8.25731C18.3129 8.30789 18.9609 8.61874 19.4339 9.12743C19.9069 9.63612 20.1698 10.3049 20.1699 10.9995C20.17 11.6942 19.9073 12.3631 19.4345 12.8719C18.9617 13.3808 18.3138 13.6918 17.6211 13.7426C18.0728 14.2686 18.3092 14.9459 18.2829 15.6387C18.2566 16.3316 17.9695 16.9889 17.4792 17.4791C16.9889 17.9694 16.3315 18.2563 15.6386 18.2824C14.9457 18.3086 14.2686 18.072 13.7427 17.6201C13.692 18.3129 13.381 18.9608 12.8722 19.4337C12.3635 19.9066 11.6946 20.1694 11 20.1694C10.3054 20.1694 9.63653 19.9066 9.12776 19.4337C8.619 18.9608 8.30803 18.3129 8.25734 17.6201C7.73145 18.072 7.05429 18.3086 6.36142 18.2824C5.66856 18.2563 5.01114 17.9694 4.5208 17.4791C4.03047 16.9889 3.74341 16.3316 3.7171 15.6387C3.69079 14.9459 3.92717 14.2686 4.37892 13.7426C3.68617 13.6919 3.03827 13.381 2.56537 12.8722C2.09247 12.3635 1.82962 11.6946 1.82962 11C1.82962 10.3054 2.09247 9.6365 2.56537 9.12773C3.03827 8.61897 3.68617 8.308 4.37892 8.25731C3.9258 7.73152 3.68826 7.05382 3.71397 6.36019C3.73967 5.66656 4.02673 5.00831 4.51754 4.5175C5.00834 4.0267 5.66659 3.73964 6.36022 3.71394C7.05385 3.68823 7.73155 3.92576 8.25734 4.37889Z" fill="#F0F6F6"/>
<path d="M11 9.16672C10.5138 9.16672 10.0475 9.35987 9.70363 9.70369C9.35982 10.0475 9.16666 10.5138 9.16666 11.0001C9.16666 11.4863 9.35982 11.9526 9.70363 12.2964C10.0475 12.6402 10.5138 12.8334 11 12.8334C11.4862 12.8334 11.9525 12.6402 12.2964 12.2964C12.6402 11.9526 12.8333 11.4863 12.8333 11.0001C12.8333 10.5138 12.6402 10.0475 12.2964 9.70369C11.9525 9.35987 11.4862 9.16672 11 9.16672ZM8.40766 8.40772C8.7459 8.05752 9.1505 7.77818 9.59785 7.58602C10.0452 7.39385 10.5263 7.2927 11.0132 7.28847C11.5 7.28424 11.9829 7.37701 12.4335 7.56137C12.8841 7.74574 13.2935 8.018 13.6378 8.36227C13.9821 8.70655 14.2543 9.11594 14.4387 9.56656C14.623 10.0172 14.7158 10.5 14.7116 10.9869C14.7074 11.4737 14.6062 11.9549 14.414 12.4022C14.2219 12.8496 13.9425 13.2541 13.5923 13.5924C12.9008 14.2603 11.9746 14.6299 11.0132 14.6215C10.0518 14.6132 9.13216 14.2276 8.45233 13.5477C7.7725 12.8679 7.38688 11.9482 7.37853 10.9869C7.37017 10.0255 7.73975 9.09926 8.40766 8.40772Z" fill="#F0F6F6"/>
</svg>
