<svg width="23" height="23" viewBox="0 0 23 23" fill="none" xmlns="http://www.w3.org/2000/svg">
<g clip-path="url(#clip0_14_30)">
<path d="M11.5 0C5.14877 0 0 5.14877 0 11.5C0 17.8512 5.14877 23 11.5 23C17.8512 23 23 17.8512 23 11.5C23 5.14877 17.8512 0 11.5 0ZM14.375 1.86372C17.6144 2.82936 20.162 5.38559 21.1291 8.62498H16.4669C15.9625 7.75875 15.2417 7.03849 14.375 6.53485V1.86372ZM15.8043 11.5047C15.8043 13.8841 13.8773 15.8129 11.5 15.8129C9.12276 15.8129 7.19579 13.8841 7.19579 11.5047C7.19579 9.12525 9.12312 7.19615 11.5 7.19615C13.8769 7.19615 15.8043 9.12527 15.8043 11.5047ZM10.0625 1.54819C10.5322 1.48098 11.0116 1.44433 11.5 1.44433C11.988 1.44433 12.4678 1.48098 12.9375 1.54819V5.94622C12.4775 5.82727 11.9974 5.75755 11.5 5.75755C11.0026 5.75755 10.5229 5.82727 10.0625 5.94622V1.54819ZM8.62502 1.86372V6.53487C7.75893 7.03764 7.03658 7.75998 6.5331 8.625H1.87093C2.83765 5.38559 5.38562 2.82938 8.62502 1.86372ZM1.44435 11.5036C1.44435 11.0134 1.48602 10.534 1.55396 10.0625H5.94265C5.82333 10.5232 5.75757 11.0054 5.75757 11.5039C5.75757 11.9995 5.82298 12.4793 5.94085 12.9375H1.55288C1.48606 12.4685 1.44435 11.9909 1.44435 11.5036ZM8.625 21.1431C5.38308 20.1771 2.83441 17.6172 1.86877 14.375H6.52879C7.03263 15.2432 7.75639 15.9684 8.625 16.4726V21.1431V21.1431ZM12.9375 21.4586C12.4678 21.5258 11.988 21.5624 11.5 21.5624C11.0116 21.5624 10.5322 21.5254 10.0625 21.4586V17.0613C10.5229 17.1802 11.0026 17.2499 11.5 17.2499C11.9974 17.2499 12.4775 17.1802 12.9375 17.0613V21.4586ZM14.375 21.143V16.4726C15.2433 15.9684 15.9674 15.2432 16.4709 14.375H21.1309C20.1653 17.6169 17.6166 20.1771 14.375 21.1431L14.375 21.143ZM17.0592 12.9375C17.1771 12.4793 17.2425 11.9995 17.2425 11.5039C17.2425 11.0054 17.1767 10.5232 17.057 10.0624H21.4461C21.5136 10.5339 21.5557 11.0133 21.5557 11.5035C21.5557 11.9909 21.5144 12.4688 21.4472 12.9375H17.0592Z" fill="#878A8A"/>
</g>
<defs>
<clipPath id="clip0_14_30">
<rect width="23" height="23" fill="white"/>
</clipPath>
</defs>
</svg>
