<svg width="45" height="45" viewBox="0 0 45 45" fill="none" xmlns="http://www.w3.org/2000/svg">
<path d="M9.14127 26.9535C7.49519 26.9535 5.88132 27.4097 4.47884 28.2715C3.07636 29.1333 1.94015 30.3669 1.19634 31.8353C0.452532 33.3037 0.130237 34.9496 0.265236 36.5901C0.400235 38.2307 0.987246 39.8017 1.9611 41.1288C2.93495 42.4559 4.25754 43.4872 5.78202 44.1081C7.30651 44.729 8.97325 44.9152 10.5972 44.6462C12.2211 44.3771 13.7388 43.6633 14.9815 42.5839C16.2243 41.5045 17.1437 40.1019 17.6375 38.5316H27.3638C28.0021 40.5614 29.3462 42.2957 31.1525 43.4203C32.9589 44.545 35.1082 44.9857 37.2114 44.6628C39.3146 44.3399 41.2327 43.2746 42.6185 41.6599C44.0042 40.0451 44.7661 37.9876 44.7661 35.8597C44.7661 33.7319 44.0042 31.6743 42.6185 30.0596C41.2327 28.4448 39.3146 27.3795 37.2114 27.0566C35.1082 26.7337 32.9589 27.1745 31.1525 28.2991C29.3462 29.4238 28.0021 31.158 27.3638 33.1878H17.6375C17.0668 31.3812 15.9357 29.8031 14.4082 28.6822C12.8807 27.5613 11.0359 26.9559 9.14127 26.9535ZM5.57877 35.8597C5.57877 35.1551 5.78771 34.4664 6.17916 33.8805C6.57061 33.2947 7.127 32.838 7.77796 32.5684C8.42892 32.2988 9.14522 32.2282 9.83628 32.3657C10.5273 32.5031 11.1621 32.8424 11.6603 33.3407C12.1586 33.8389 12.4979 34.4737 12.6353 35.1647C12.7728 35.8558 12.7022 36.5721 12.4326 37.223C12.163 37.874 11.7063 38.4304 11.1205 38.8218C10.5346 39.2133 9.84587 39.4222 9.14127 39.4222C8.19677 39.4211 7.29126 39.0455 6.6234 38.3776C5.95553 37.7097 5.57985 36.8042 5.57877 35.8597ZM39.4225 35.8597C39.4225 36.5643 39.2136 37.2531 38.8221 37.8389C38.4307 38.4248 37.8743 38.8814 37.2233 39.151C36.5724 39.4207 35.8561 39.4912 35.165 39.3538C34.4739 39.2163 33.8392 38.877 33.341 38.3788C32.8427 37.8806 32.5034 37.2458 32.366 36.5547C32.2285 35.8637 32.2991 35.1474 32.5687 34.4964C32.8383 33.8454 33.2949 33.2891 33.8808 32.8976C34.4666 32.5062 35.1554 32.2972 35.86 32.2972C36.8045 32.2983 37.71 32.674 38.3779 33.3418C39.0458 34.0097 39.4214 34.9152 39.4225 35.8597ZM27.3637 6.46855L20.6928 6.46888C18.9378 6.4642 17.1993 6.80761 15.5779 7.47924C13.9565 8.15086 12.4844 9.13737 11.2468 10.3817L7.36002 14.2686L7.36002 11.8128C7.36002 11.1042 7.07852 10.4246 6.57745 9.92354C6.07638 9.42247 5.39677 9.14097 4.68815 9.14097C3.97952 9.14097 3.29992 9.42247 2.79885 9.92354C2.29777 10.4246 2.01627 11.1042 2.01627 11.8128L2.01627 20.7181C2.01623 20.8067 2.02091 20.8952 2.02962 20.9835C2.03318 21.0199 2.04014 21.0551 2.04515 21.0911C2.05222 21.1416 2.05825 21.192 2.0682 21.2421C2.07654 21.2842 2.0882 21.3249 2.0985 21.3662C2.10928 21.4096 2.11888 21.4531 2.13184 21.4959C2.14417 21.5364 2.15945 21.5756 2.17362 21.6153C2.18876 21.6579 2.20284 21.7007 2.22022 21.7426C2.23555 21.7795 2.25359 21.8149 2.2705 21.851C2.29065 21.894 2.30987 21.9374 2.33244 21.9796C2.35079 22.0137 2.37173 22.0462 2.3915 22.0795C2.41617 22.121 2.43975 22.163 2.46686 22.2035C2.49131 22.24 2.51862 22.2742 2.54479 22.3094C2.57055 22.3441 2.59469 22.3796 2.62234 22.4132C2.67434 22.4765 2.72949 22.5371 2.78699 22.5953C2.79117 22.5995 2.79462 22.6042 2.79884 22.6084C2.80305 22.6127 2.80777 22.6161 2.81202 22.6204C2.87033 22.6779 2.93093 22.7331 2.99431 22.7851C3.02671 22.8117 3.06088 22.835 3.09421 22.8598C3.13067 22.8869 3.16627 22.9152 3.20414 22.9407C3.24348 22.967 3.2843 22.9898 3.32467 23.0138C3.35913 23.0344 3.3928 23.056 3.42824 23.075C3.46925 23.097 3.51143 23.1157 3.5533 23.1353C3.59053 23.1528 3.62706 23.1714 3.66519 23.1872C3.70594 23.2041 3.74754 23.2178 3.7889 23.2325C3.82982 23.2471 3.87014 23.2629 3.91195 23.2755C3.95367 23.2881 3.99605 23.2975 4.03822 23.308C4.08058 23.3187 4.12237 23.3305 4.16549 23.3391C4.21445 23.3488 4.2639 23.3547 4.31325 23.3616C4.35024 23.3668 4.38658 23.374 4.42405 23.3776C4.51226 23.3864 4.60069 23.3909 4.68933 23.391L13.5944 23.391C14.303 23.391 14.9826 23.1095 15.4837 22.6084C15.9848 22.1073 16.2663 21.4277 16.2663 20.7191C16.2663 20.0105 15.9848 19.3309 15.4837 18.8298C14.9826 18.3287 14.303 18.0472 13.5944 18.0472H11.1385L15.0254 14.1603C15.768 13.4137 16.6512 12.8218 17.6241 12.4189C18.597 12.0159 19.6401 11.8098 20.6931 11.8126L27.3638 11.8123C28.0022 13.8421 29.3462 15.5763 31.1526 16.7009C32.959 17.8256 35.1083 18.2663 37.2115 17.9434C39.3147 17.6204 41.2328 16.5551 42.6185 14.9403C44.0043 13.3256 44.7661 11.268 44.766 9.14016C44.766 7.01231 44.0041 4.95478 42.6183 3.34005C41.2326 1.72531 39.3145 0.660084 37.2113 0.337196C35.108 0.0143089 32.9587 0.455101 31.1524 1.57978C29.3461 2.70446 28.0021 4.4387 27.3637 6.46855ZM39.4225 9.14032C39.4225 9.84491 39.2136 10.5337 38.8221 11.1195C38.4307 11.7054 37.8743 12.162 37.2233 12.4316C36.5724 12.7013 35.8561 12.7718 35.165 12.6344C34.4739 12.4969 33.8392 12.1576 33.341 11.6594C32.8427 11.1612 32.5034 10.5264 32.366 9.83533C32.2285 9.14427 32.2991 8.42797 32.5687 7.777C32.8383 7.12605 33.2949 6.56966 33.8808 6.17821C34.4666 5.78675 35.1554 5.57782 35.86 5.57782C36.8045 5.5789 37.71 5.95458 38.3779 6.62244C39.0458 7.29031 39.4214 8.19581 39.4225 9.14032Z" fill="#F0F6F6"/>
</svg>
